<svg width="97" height="133" viewBox="0 0 97 133" fill="none" xmlns="http://www.w3.org/2000/svg">
<circle cx="3.00741" cy="3.00741" r="3.00741" fill="#E7F0FC"/>
<circle cx="3.00741" cy="21.0221" r="3.00741" fill="#E7F0FC"/>
<circle cx="3.00741" cy="39.0367" r="3.00741" fill="#E7F0FC"/>
<circle cx="3.00741" cy="57.0514" r="3.00741" fill="#E7F0FC"/>
<circle cx="3.00741" cy="75.066" r="3.00741" fill="#E7F0FC"/>
<circle cx="3.00741" cy="93.0807" r="3.00741" fill="#E7F0FC"/>
<circle cx="3.00741" cy="111.095" r="3.00741" fill="#E7F0FC"/>
<circle cx="3.00741" cy="129.11" r="3.00741" fill="#E7F0FC"/>
<circle cx="21.0221" cy="3.00741" r="3.00741" fill="#E7F0FC"/>
<circle cx="21.0221" cy="21.0221" r="3.00741" fill="#E7F0FC"/>
<circle cx="21.0221" cy="39.0367" r="3.00741" fill="#E7F0FC"/>
<circle cx="21.0221" cy="57.0514" r="3.00741" fill="#E7F0FC"/>
<circle cx="21.0221" cy="75.066" r="3.00741" fill="#E7F0FC"/>
<circle cx="21.0221" cy="93.0807" r="3.00741" fill="#E7F0FC"/>
<circle cx="21.0221" cy="111.095" r="3.00741" fill="#E7F0FC"/>
<circle cx="21.0221" cy="129.11" r="3.00741" fill="#E7F0FC"/>
<circle cx="39.0367" cy="3.00741" r="3.00741" fill="#E7F0FC"/>
<circle cx="39.0367" cy="21.0221" r="3.00741" fill="#E7F0FC"/>
<circle cx="39.0367" cy="39.0367" r="3.00741" fill="#E7F0FC"/>
<circle cx="39.0367" cy="57.0514" r="3.00741" fill="#E7F0FC"/>
<circle cx="39.0367" cy="75.066" r="3.00741" fill="#E7F0FC"/>
<circle cx="39.0367" cy="93.0807" r="3.00741" fill="#E7F0FC"/>
<circle cx="39.0367" cy="111.095" r="3.00741" fill="#E7F0FC"/>
<circle cx="39.0367" cy="129.11" r="3.00741" fill="#E7F0FC"/>
<circle cx="57.0514" cy="3.00741" r="3.00741" fill="#E7F0FC"/>
<circle cx="57.0514" cy="21.0221" r="3.00741" fill="#E7F0FC"/>
<circle cx="57.0514" cy="39.0367" r="3.00741" fill="#E7F0FC"/>
<circle cx="57.0514" cy="57.0514" r="3.00741" fill="#E7F0FC"/>
<circle cx="57.0514" cy="75.066" r="3.00741" fill="#E7F0FC"/>
<circle cx="57.0514" cy="93.0807" r="3.00741" fill="#E7F0FC"/>
<circle cx="57.0514" cy="111.095" r="3.00741" fill="#E7F0FC"/>
<circle cx="57.0514" cy="129.11" r="3.00741" fill="#E7F0FC"/>
<circle cx="75.066" cy="3.00741" r="3.00741" fill="#E7F0FC"/>
<circle cx="75.066" cy="21.0221" r="3.00741" fill="#E7F0FC"/>
<circle cx="75.066" cy="39.0367" r="3.00741" fill="#E7F0FC"/>
<circle cx="75.066" cy="57.0514" r="3.00741" fill="#E7F0FC"/>
<circle cx="75.066" cy="75.066" r="3.00741" fill="#E7F0FC"/>
<circle cx="75.066" cy="93.0807" r="3.00741" fill="#E7F0FC"/>
<circle cx="75.066" cy="111.095" r="3.00741" fill="#E7F0FC"/>
<circle cx="75.066" cy="129.11" r="3.00741" fill="#E7F0FC"/>
<circle cx="93.0807" cy="3.00741" r="3.00741" fill="#E7F0FC"/>
<circle cx="93.0807" cy="21.0221" r="3.00741" fill="#E7F0FC"/>
<circle cx="93.0807" cy="39.0367" r="3.00741" fill="#E7F0FC"/>
<circle cx="93.0807" cy="57.0514" r="3.00741" fill="#E7F0FC"/>
<circle cx="93.0807" cy="75.066" r="3.00741" fill="#E7F0FC"/>
<circle cx="93.0807" cy="93.0807" r="3.00741" fill="#E7F0FC"/>
<circle cx="93.0807" cy="111.095" r="3.00741" fill="#E7F0FC"/>
<circle cx="93.0807" cy="129.11" r="3.00741" fill="#E7F0FC"/>
</svg>
